<?xml version="1.0" encoding="UTF-8"?>
<svg id="Layer_1" data-name="Layer 1" xmlns="http://www.w3.org/2000/svg" viewBox="0 0 434 54">
  <defs>
    <style>
      .cls-1 {
        fill: #099;
      }

      .cls-2 {
        fill: #f296bf;
      }

      .cls-2, .cls-3 {
        fill-rule: evenodd;
      }

      .cls-3 {
        fill: #ffdda0;
      }
    </style>
  </defs>
  <g>
    <path class="cls-2" d="M402,24.67c1.83-6.09,7.17-10.64,13.02-12.88,5.87-2.25,12.42-2.4,16.2,3.14,3.62,5.3,4.19,14.61-2.43,18.21-2.28,1.23-7.74,2.56-13.07,2.44-.8-6.12-8.92-9.92-13.72-10.9h0Z"/>
    <path class="cls-2" d="M419.44,48.26c-1.66,1.06-4.69,2.16-6.78,2.25-3.12,.13-5.19,.99-8.97,.08-2.07-.5-2.97-1.18-4.92-2-1.53-.64-.78-1.4,.3-1.79,2.47-.88,4.81-1.95,6.68-2.89,4.16-2.09,6.18-4.21,10.65-5.63,4.15-1.33,9.82-2.38,12.27-.9,1.05,.64,.84,1.84,.25,3.57-.93,2.69-6.35,5.31-9.47,7.3h0Z"/>
    <path class="cls-2" d="M378.8,42.74c-3.26-2.08-5.85-4.86-5.39-7.91,1.22-8.03,16.95-3.22,21.05-1.34,1.16,.54,13.2,5.36,11.34,7.27-4.56,4.62-11.67,6.65-18.31,5.52-2.29-.39-5.76-1.68-8.68-3.55h0Z"/>
    <path class="cls-2" d="M375.61,29.57c-1.72-3.95-3.28-8.08-2.97-12.38,.13-1.9,.13-4.02,1.46-5.62,.46-.56,3.36-2.87,5.54-2.8,.54,1.31-1.47,5.42-1.18,8.21,.44,4.25,4.92,8.56,7.14,12.11-2.95-.27-7.4-.8-10,.49Z"/>
    <path class="cls-2" d="M388.29,29.29c-.1,.16-5.37-7.37-5.71-8.29-1.04-2.83-1.72-6.86-.04-9.64,3.01-4.92,13.03-7.4,18.61-8.88,7-1.87,8.54,1.97,12.23,6.5-4.66,1.75-13.08,10.57-13.63,15.34-4.68-.07-9.14,1.25-11.46,4.97Z"/>
    <path class="cls-3" d="M401.26,26.75c6.75,1.26,12.23,6.12,12.23,10.86-1.37,.66-2.6,1.38-3.81,2.12-2.44-2.8-12.79-6.96-13.99-7.52-1.25-.57-3.35-1.36-5.85-2.08,1.76-2.89,6.21-4.35,11.42-3.38Z"/>
  </g>
  <g>
    <path class="cls-1" d="M2,6.47H18.17v4.39H5.9v13.6h11.34v4.37H5.9v18.48H2V6.47Z"/>
    <path class="cls-1" d="M22.82,4.29h3.9V47.32h-3.9V4.29Z"/>
    <path class="cls-1" d="M35.53,33.63c.08,7.2,3.44,10.17,7.37,10.17,2.8,0,4.52-.68,5.97-1.5l.69,3.79c-1.37,.85-3.77,1.87-7.19,1.87-6.62,0-10.6-6-10.6-14.79s3.85-15.82,10.14-15.82c7.03,0,8.87,8.39,8.87,13.78,0,1.12-.05,1.92-.13,2.5h-15.11Zm11.47-3.83c.04-3.36-1.01-8.63-5.4-8.63-4,0-5.7,4.92-6.02,8.63h11.42Z"/>
    <path class="cls-1" d="M73.67,39.3c0,3.07,.07,5.7,.18,8.02h-3.46l-.21-4.79h-.11c-.99,2.36-3.27,5.46-7.13,5.46-3.37,0-7.42-2.57-7.42-12.84V18.01h3.9v16.19c0,5.58,1.28,9.38,4.82,9.38,2.62,0,4.46-2.5,5.18-4.89,.2-.77,.36-1.72,.36-2.73V18.01h3.9v21.28Z"/>
    <path class="cls-1" d="M80.2,27.14c0-3.46-.06-6.41-.18-9.13h3.43l.15,5.75h.14c1.01-3.93,3.38-6.42,6-6.42,.42,0,.73,.04,1.09,.15v5.01c-.4-.11-.79-.15-1.33-.15-2.76,0-4.71,2.83-5.24,6.82-.1,.75-.16,1.62-.16,2.49v15.66h-3.9V27.14Z"/>
    <path class="cls-1" d="M99.33,9.73c0,1.81-.93,3.31-2.49,3.31-1.42,0-2.37-1.5-2.37-3.31,0-1.83,1-3.32,2.44-3.32s2.41,1.46,2.42,3.32Zm-4.38,37.59V18.01h3.9v29.31h-3.9Z"/>
    <path class="cls-1" d="M104.82,41.89c1.18,1,3.24,2.09,5.19,2.09,2.86,0,4.19-1.91,4.19-4.37s-1.14-3.91-4-5.37c-3.89-1.92-5.74-4.8-5.73-8.31,0-4.72,2.82-8.59,7.45-8.59,2.19,0,4.08,.81,5.28,1.8l-.97,3.87c-.83-.71-2.41-1.73-4.42-1.73-2.31,0-3.57,1.81-3.57,4.02,0,2.43,1.27,3.51,4.09,5,3.71,1.88,5.64,4.43,5.65,8.81,0,5.19-2.97,8.83-8.06,8.83-2.36,0-4.54-.83-6.05-2.04l.95-4.02Z"/>
    <path class="cls-1" d="M127.72,9.57v8.44h5.63v4.04h-5.63v15.79c0,3.65,.77,5.71,2.96,5.71,1.02,0,1.76-.17,2.27-.39l.18,4.05c-.76,.41-1.98,.73-3.5,.73-1.8,0-3.3-.81-4.23-2.26-1.08-1.62-1.52-4.2-1.52-7.64V22.05h-3.34v-4.04h3.34v-7.06l3.84-1.38Z"/>
    <path class="cls-1" d="M139.69,33.63c.08,7.2,3.44,10.17,7.37,10.17,2.8,0,4.52-.68,5.97-1.5l.69,3.79c-1.37,.85-3.77,1.87-7.19,1.87-6.62,0-10.6-6-10.6-14.79s3.85-15.82,10.14-15.82c7.03,0,8.87,8.39,8.87,13.78,0,1.12-.05,1.92-.13,2.5h-15.11Zm11.47-3.83c.04-3.36-1.01-8.63-5.4-8.63-4,0-5.7,4.92-6.02,8.63h11.42Z"/>
    <path class="cls-1" d="M187.85,4.29V39.76c0,2.61,.07,5.54,.18,7.56h-3.48l-.2-5.07h-.1c-1.2,3.27-3.79,5.73-7.31,5.73-5.22,0-9.25-6-9.25-14.89-.03-9.8,4.44-15.75,9.68-15.75,3.31,0,5.54,2.11,6.5,4.45h.09V4.29h3.9Zm-3.9,25.64c0-.69-.05-1.58-.16-2.28-.61-3.36-2.72-6.13-5.67-6.13-4.06,0-6.48,4.84-6.48,11.28,0,5.95,2.18,10.89,6.4,10.89,2.62,0,5-2.41,5.73-6.4,.14-.7,.19-1.45,.19-2.29v-5.08Z"/>
    <path class="cls-1" d="M196.57,33.63c.08,7.2,3.44,10.17,7.37,10.17,2.8,0,4.52-.68,5.97-1.5l.69,3.79c-1.37,.85-3.77,1.87-7.19,1.87-6.62,0-10.6-6-10.6-14.79s3.85-15.82,10.14-15.82c7.03,0,8.87,8.39,8.87,13.78,0,1.12-.05,1.92-.13,2.5h-15.11Zm11.47-3.83c.04-3.36-1.01-8.63-5.4-8.63-4,0-5.7,4.92-6.02,8.63h11.42Z"/>
    <path class="cls-1" d="M251.03,53.29c-4.05-1.41-8.01-3.09-11.49-4.71-.63-.3-1.22-.57-1.82-.6-7.14-.36-13.2-7.51-13.2-20.67s5.86-21.51,13.96-21.51,13.47,8.58,13.47,20.65c0,10.5-3.57,17.2-8.56,19.6v.24c2.97,1.02,6.24,2,8.79,2.62l-1.14,4.38Zm-3.2-26.57c0-8.17-3.12-16.62-9.49-16.62s-9.74,8.27-9.74,17.08c0,8.68,3.49,16.52,9.55,16.52s9.67-7.68,9.67-16.98Z"/>
    <path class="cls-1" d="M274.99,39.3c0,3.07,.07,5.7,.18,8.02h-3.46l-.21-4.79h-.11c-.99,2.36-3.27,5.46-7.13,5.46-3.37,0-7.42-2.57-7.42-12.84V18.01h3.9v16.19c0,5.58,1.28,9.38,4.82,9.38,2.62,0,4.46-2.5,5.18-4.89,.2-.77,.36-1.72,.36-2.73V18.01h3.9v21.28Z"/>
    <path class="cls-1" d="M283.71,33.63c.08,7.2,3.44,10.17,7.37,10.17,2.8,0,4.52-.68,5.97-1.5l.69,3.79c-1.37,.85-3.77,1.87-7.19,1.87-6.62,0-10.6-6-10.6-14.79s3.85-15.82,10.14-15.82c7.03,0,8.87,8.39,8.87,13.78,0,1.12-.05,1.92-.13,2.5h-15.11Zm11.47-3.83c.04-3.36-1.01-8.63-5.4-8.63-4,0-5.7,4.92-6.02,8.63h11.42Zm.91-24.5l-5.44,8.68h-2.77l3.91-8.68h4.31Z"/>
    <path class="cls-1" d="M303.65,47.32c.1-2.01,.18-4.95,.18-7.56V4.29h3.9V22.72h.09c1.37-3.3,3.87-5.37,7.35-5.37,5.35,0,9.11,6.05,9.09,14.92,0,10.51-4.9,15.72-9.7,15.72-3.11,0-5.59-1.66-7.22-5.48h-.1l-.2,4.82h-3.38Zm4.07-11.75c0,.66,.06,1.33,.16,1.93,.74,3.7,3.05,6.24,5.88,6.24,4.12,0,6.54-4.54,6.54-11.27,0-5.89-2.24-10.93-6.43-10.93-2.65,0-5.14,2.53-5.93,6.55-.12,.65-.22,1.37-.22,2.22v5.27Z"/>
    <path class="cls-1" d="M331.42,33.63c.08,7.2,3.44,10.17,7.37,10.17,2.8,0,4.52-.68,5.97-1.5l.69,3.79c-1.37,.85-3.77,1.87-7.19,1.87-6.62,0-10.6-6-10.6-14.79s3.85-15.82,10.14-15.82c7.03,0,8.87,8.39,8.87,13.78,0,1.12-.05,1.92-.13,2.5h-15.11Zm11.47-3.83c.04-3.36-1.01-8.63-5.4-8.63-4,0-5.7,4.92-6.02,8.63h11.42Z"/>
    <path class="cls-1" d="M366.91,46.26c-1.03,.69-3.28,1.7-6.18,1.7-6.5,0-10.75-6.01-10.75-14.97s4.53-15.63,11.58-15.63c2.31,0,4.39,.8,5.45,1.56l-.87,4.09c-.96-.7-2.43-1.41-4.58-1.41-4.92,0-7.61,5.01-7.6,11.1,0,6.79,3.21,10.97,7.51,10.97,2.2,0,3.69-.76,4.8-1.41l.66,4Z"/>
  </g>
</svg>